<?xml version="1.0" standalone="no"?>
<!DOCTYPE svg PUBLIC "-//W3C//DTD SVG 20010904//EN"
 "http://www.w3.org/TR/2001/REC-SVG-20010904/DTD/svg10.dtd">
<svg version="1.0" xmlns="http://www.w3.org/2000/svg"
 width="512.000000pt" height="512.000000pt" viewBox="0 0 512.000000 512.000000"
 preserveAspectRatio="xMidYMid meet">

<g transform="translate(0.000000,512.000000) scale(0.100000,-0.100000)"
fill="#000000" stroke="none">
<path d="M3108 2958 c-3 -1060 -5 -1147 -21 -1203 -61 -205 -196 -340 -387
-385 -74 -18 -239 -16 -323 4 -220 52 -355 214 -375 451 l-7 80 -197 3 -198 2
0 -63 c0 -226 94 -447 251 -590 168 -154 392 -227 695 -227 329 0 558 88 741
283 112 121 188 285 212 460 7 52 11 460 11 1203 l0 1124 -200 0 -199 0 -3
-1142z"/>
</g>
</svg>
